<svg width="16" height="21" viewBox="0 0 16 21" fill="none" xmlns="http://www.w3.org/2000/svg">
<path d="M13 0.5H13C13.6377 0.499964 14.2513 0.743604 14.7152 1.18107C15.1774 1.61688 15.4563 2.21223 15.4954 2.8461L15.5 3.00711V16.018C15.5 16.8009 14.6462 17.2697 13.9938 16.8812L13.9046 16.8212L13.2939 16.3775L12.5 15.8007V16.782V19.018C12.5 19.8009 11.6462 20.2697 10.9938 19.8812L10.9047 19.8213L6.79409 16.8316L6.5 16.6177L6.20591 16.8316L2.08791 19.8266L2.08771 19.8268C1.45478 20.2876 0.573429 19.8728 0.504167 19.1158L0.5 19.0083V6C0.5 5.33696 0.763392 4.70107 1.23223 4.23223C1.70107 3.76339 2.33696 3.5 3 3.5H3.50003L3.5 2.99997C3.49996 2.3623 3.7436 1.74871 4.18107 1.28475C4.61688 0.822554 5.21224 0.543663 5.84612 0.504574L6.0071 0.5H13ZM10.0299 4.50089L10.0149 4.5H10H3H2.99993C2.63253 4.50005 2.27793 4.63493 2.00338 4.87907C1.72882 5.12321 1.55342 5.45962 1.51043 5.8245L1.50875 5.83878L1.50789 5.85314L1.50089 5.97014L1.5 5.98506V6V18.036V19.0176L2.29399 18.4404L5.91199 15.8104L5.91223 15.8103C6.06943 15.6959 6.25657 15.6297 6.45075 15.62C6.64124 15.6105 6.83039 15.6557 6.99595 15.75L7.09806 15.8167L10.7059 18.4404L11.5 19.0178V18.036V6V5.99993C11.5 5.63253 11.3651 5.27793 11.1209 5.00338C10.8768 4.72882 10.5404 4.55342 10.1755 4.51043L10.1612 4.50875L10.1469 4.50789L10.0299 4.50089ZM4.5 3V3.5H5H10C10.663 3.5 11.2989 3.76339 11.7678 4.23223C12.2366 4.70107 12.5 5.33696 12.5 6V14.309V14.5637L12.706 14.7134L13.706 15.4404L14.5 16.0177V15.036V3C14.5 2.60218 14.342 2.22065 14.0607 1.93934C13.7794 1.65804 13.3978 1.5 13 1.5H6C5.60218 1.5 5.22064 1.65804 4.93934 1.93934C4.65804 2.22064 4.5 2.60217 4.5 3Z" fill="white" stroke="url(#paint0_linear_281_1280)"/>
<defs>
<linearGradient id="paint0_linear_281_1280" x1="8.4" y1="20.5209" x2="8.4" y2="1.49176e-09" gradientUnits="userSpaceOnUse">
<stop stop-color="#61431F"/>
<stop offset="1" stop-color="#F3D782"/>
</linearGradient>
</defs>
</svg>
