<svg width="38" height="38" viewBox="0 0 38 38" fill="none" xmlns="http://www.w3.org/2000/svg">
<circle cx="19" cy="19" r="19" fill="url(#paint0_linear_785_645)"/>
<path d="M19.0026 10C20.3621 10.0008 21.7038 10.3094 22.927 10.9026C24.1501 11.4959 25.223 12.3584 26.0651 13.4254C26.9072 14.4924 27.4966 15.7362 27.7891 17.0635C28.0817 18.3908 28.0697 19.767 27.7541 21.089C27.4385 22.411 26.8276 23.6444 25.967 24.6966C25.1065 25.7488 24.0188 26.5925 22.7855 27.1644C21.5522 27.7363 20.2053 28.0215 18.846 27.9986C17.4867 27.9758 16.1502 27.6454 14.9368 27.0324L14.8006 26.9593L10.6988 27.983C10.6199 28.0029 10.5376 28.0053 10.4576 27.9903C10.3776 27.9753 10.3018 27.943 10.2355 27.8959C10.1692 27.8487 10.1139 27.7877 10.0734 27.7171C10.0329 27.6465 10.0083 27.568 10.0011 27.4869V27.3946L10.0169 27.3013L11.0409 23.2018L10.97 23.0668C10.4563 22.0529 10.1394 20.9508 10.036 19.8189L10.0079 19.3892L10 18.9999C10 16.613 10.9485 14.3238 12.6368 12.636C14.3251 10.9482 16.615 10 19.0026 10ZM19.0026 11.125C17.628 11.1248 16.2772 11.4842 15.0846 12.1675C13.8919 12.8508 12.8989 13.8342 12.2041 15.02C11.5094 16.2058 11.1372 17.5527 11.1244 18.9268C11.1116 20.301 11.4588 21.6546 12.1314 22.853C12.1836 22.9462 12.2082 23.0524 12.2023 23.159L12.1865 23.2648L11.3358 26.6634L14.7387 25.8152C14.8079 25.798 14.8797 25.7942 14.9503 25.8039L15.0527 25.8275L15.1506 25.8714C16.2009 26.4592 17.372 26.7986 18.574 26.8635C19.7759 26.9283 20.9768 26.7169 22.0843 26.2456C23.1918 25.7742 24.1765 25.0553 24.9628 24.1442C25.7491 23.2331 26.3161 22.154 26.6202 20.9897C26.9244 19.8254 26.9576 18.6069 26.7172 17.4278C26.4769 16.2486 25.9695 15.1402 25.234 14.1877C24.4984 13.2352 23.5543 12.4638 22.4741 11.9329C21.3939 11.402 20.2063 11.1256 19.0026 11.125ZM19.5653 20.1249C19.7059 20.1247 19.8415 20.1771 19.9454 20.2718C20.0493 20.3665 20.114 20.4966 20.1267 20.6366C20.1394 20.7766 20.0992 20.9163 20.014 21.0281C19.9289 21.14 19.8049 21.2159 19.6665 21.2409L19.5653 21.2499H16.1893C16.0487 21.2502 15.9131 21.1978 15.8092 21.1031C15.7053 21.0084 15.6406 20.8783 15.6279 20.7383C15.6152 20.5983 15.6554 20.4586 15.7405 20.3468C15.8257 20.2349 15.9497 20.159 16.088 20.1339L16.1893 20.1249H19.5653ZM21.8159 16.75C21.9565 16.7497 22.0921 16.8021 22.196 16.8968C22.2999 16.9915 22.3646 17.1216 22.3773 17.2616C22.39 17.4016 22.3498 17.5413 22.2647 17.6531C22.1795 17.765 22.0555 17.8409 21.9172 17.866L21.8159 17.875H16.1893C16.0487 17.8752 15.9131 17.8228 15.8092 17.7281C15.7053 17.6334 15.6406 17.5033 15.6279 17.3633C15.6152 17.2233 15.6554 17.0836 15.7405 16.9718C15.8257 16.8599 15.9497 16.784 16.088 16.759L16.1893 16.75H21.8159Z" fill="#121212"/>
<defs>
<linearGradient id="paint0_linear_785_645" x1="0" y1="19" x2="38" y2="19" gradientUnits="userSpaceOnUse">
<stop stop-color="#C59241"/>
<stop offset="0.505" stop-color="#FEF6D1"/>
<stop offset="1" stop-color="#C49138"/>
</linearGradient>
</defs>
</svg>
