<svg width="18" height="22" viewBox="0 0 18 22" fill="none" xmlns="http://www.w3.org/2000/svg">
<path fill-rule="evenodd" clip-rule="evenodd" d="M2.20432 5.37768e-07C1.79074 -0.000293416 1.38542 0.119928 1.03476 0.346908C0.684108 0.573888 0.402275 0.898456 0.221518 1.28347C0.0407603 1.66848 -0.0316185 2.09839 0.0126637 2.52399C0.0569459 2.94958 0.2161 3.35368 0.471913 3.69004L7.85825 13.4193V19.6366H4.43301C4.1302 19.6366 3.8398 19.7611 3.62568 19.9827C3.41156 20.2043 3.29127 20.5049 3.29127 20.8183C3.29127 21.1317 3.41156 21.4323 3.62568 21.6539C3.8398 21.8755 4.1302 22 4.43301 22H13.567C13.8698 22 14.1602 21.8755 14.3743 21.6539C14.5884 21.4323 14.7087 21.1317 14.7087 20.8183C14.7087 20.5049 14.5884 20.2043 14.3743 19.9827C14.1602 19.7611 13.8698 19.6366 13.567 19.6366H10.1417V13.4193L17.5281 3.69004C17.7839 3.35368 17.9431 2.94958 17.9873 2.52399C18.0316 2.09839 17.9592 1.66848 17.7785 1.28347C17.5977 0.898456 17.3159 0.573888 16.9652 0.346908C16.6146 0.119928 16.2093 -0.000293416 15.7957 5.37768e-07H2.20432ZM13.2701 5.47361L15.6297 2.36339H2.37026L4.72987 5.47361H13.2701Z" fill="#A17A11"/>
</svg>
