<svg width="18" height="19" viewBox="0 0 18 19" fill="none" xmlns="http://www.w3.org/2000/svg">
<g clip-path="url(#clip0_661_1295)">
<path d="M9.805 1.29402L16.555 6.98502M9.805 1.29402C9.57965 1.10433 9.29456 1.0003 9 1.0003C8.70544 1.0003 8.42035 1.10433 8.195 1.29402M9.805 1.29402H8.195M16.555 6.98502C16.6941 7.10218 16.8062 7.24852 16.883 7.41334M16.555 6.98502L16.883 7.41334M8.195 1.29402L1.445 6.98502M1.445 6.98502C1.30591 7.10217 1.19378 7.24851 1.11697 7.41335C1.04011 7.5783 1.00019 7.75855 1 7.94053M1.445 6.98502L1 7.94053M1 7.94053V17.2505C1 17.6647 1.33586 18.0005 1.75 18.0005H5.25C5.44891 18.0005 5.63968 17.9215 5.78033 17.7809C5.92098 17.6402 6 17.4494 6 17.2505V12.2435C6 11.5529 6.55996 10.9935 7.25 10.9935H10.75C11.44 10.9935 12 11.5529 12 12.2435V17.2505C12 17.6647 12.3359 18.0005 12.75 18.0005H16.25C16.4489 18.0005 16.6397 17.9215 16.7803 17.7809C16.921 17.6402 17 17.4494 17 17.2505V7.94053M1 7.94053H17M17 7.94053C16.9998 7.75855 16.9599 7.5783 16.883 7.41334M17 7.94053L16.883 7.41334M7.87233 0.911773C7.87229 0.911802 7.87237 0.911743 7.87233 0.911773ZM7.87233 0.911773L1.12253 6.6036M7.87233 0.911773C8.18791 0.645846 8.58731 0.5 9 0.5M7.87233 0.911773L9 0.5M1.12253 6.6036C0.727818 6.93691 0.5 7.42639 0.5 7.94153M1.12253 6.6036L0.5 7.94153M9 0.5C9.41269 0.5 9.81209 0.645846 10.1277 0.911773M9 0.5L10.1277 0.911773M10.1277 0.911773C10.1277 0.911802 10.1276 0.911744 10.1277 0.911773ZM10.1277 0.911773L16.8775 6.6036M16.8775 6.6036C17.2722 6.93691 17.5 7.42639 17.5 7.94153M16.8775 6.6036L17.5 7.94153M17.5 7.94153V17.2515M17.5 17.2515C17.5 17.5831 17.3683 17.901 17.1339 18.1354M17.5 17.2515L17.1339 18.1354M17.1339 18.1354C16.8995 18.3698 16.5815 18.5015 16.25 18.5015M17.1339 18.1354L16.25 18.5015M16.25 18.5015H12.75M12.75 18.5015C12.4185 18.5015 12.1005 18.3698 11.8661 18.1354M12.75 18.5015L11.8661 18.1354M11.8661 18.1354C11.6317 17.901 11.5 17.5831 11.5 17.2515M11.8661 18.1354L11.5 17.2515M11.5 17.2515V12.2445M11.5 12.2445C11.5 12.0456 11.421 11.8549 11.2803 11.7142M11.5 12.2445L11.2803 11.7142M11.2803 11.7142C11.1397 11.5736 10.9489 11.4945 10.75 11.4945M11.2803 11.7142L10.75 11.4945M10.75 11.4945H7.25M7.25 11.4945C7.05109 11.4945 6.86032 11.5735 6.71967 11.7142M7.25 11.4945L6.71967 11.7142M6.71967 11.7142C6.57902 11.8549 6.5 12.0456 6.5 12.2445M6.71967 11.7142L6.5 12.2445M6.5 12.2445V17.2515M6.5 17.2515C6.5 17.5831 6.3683 17.901 6.13388 18.1354M6.5 17.2515L6.13388 18.1354M6.13388 18.1354C5.89946 18.3698 5.58152 18.5015 5.25 18.5015M6.13388 18.1354L5.25 18.5015M5.25 18.5015H1.75M1.75 18.5015C1.58585 18.5015 1.4233 18.4692 1.27165 18.4064M1.75 18.5015L1.27165 18.4064M1.27165 18.4064C1.11999 18.3436 0.98219 18.2515 0.866116 18.1354M1.27165 18.4064L0.866116 18.1354M0.866116 18.1354C0.750042 18.0193 0.657969 17.8815 0.595151 17.7299M0.866116 18.1354L0.595151 17.7299M0.595151 17.7299C0.532332 17.5782 0.5 17.4157 0.5 17.2515M0.595151 17.7299L0.5 17.2515M0.5 17.2515V7.94153" stroke="url(#paint0_linear_661_1295)"/>
<path d="M11 1H10V0.5H10.5L11 1Z" fill="#EBCF7D"/>
<path d="M8 0.5L7 1V1.5H8V0.5Z" fill="#EBCF7D"/>
</g>
<defs>
<linearGradient id="paint0_linear_661_1295" x1="9.45" y1="19.0015" x2="9.45" y2="-1.78853e-07" gradientUnits="userSpaceOnUse">
<stop stop-color="#61431F"/>
<stop offset="1" stop-color="#F3D782"/>
</linearGradient>
<clipPath id="clip0_661_1295">
<rect width="18" height="19" fill="white"/>
</clipPath>
</defs>
</svg>
