<?xml version="1.0" encoding="utf-8"?>
<!-- Generator: Adobe Illustrator 23.0.5, SVG Export Plug-In . SVG Version: 6.00 Build 0)  -->
<svg version="1.1" id="Layer_1" xmlns="http://www.w3.org/2000/svg" xmlns:xlink="http://www.w3.org/1999/xlink" x="0px" y="0px"
	 viewBox="0 0 512 512" style="enable-background:new 0 0 512 512;" xml:space="preserve">
<style type="text/css">
	.st0{fill:url(#SVGID_1_);}
</style>
<linearGradient id="SVGID_1_" gradientUnits="userSpaceOnUse" x1="13.3079" y1="255.915" x2="498.1421" y2="255.915">
	<stop  offset="0" style="stop-color:#C59241"/>
	<stop  offset="0.567" style="stop-color:#FEF6D1"/>
	<stop  offset="1" style="stop-color:#C49138"/>
</linearGradient>
<path class="st0" d="M497.92,208.87c-0.83-9.44-3.67-18.23-8.6-26.33c-3.59-5.91-7.98-11.13-13.44-15.42
	c-0.09-0.08-0.18-0.15-0.27-0.24c-5.06-4.48-10.33-8.68-15.6-12.92c-0.76-1.09-1.93-1.73-2.92-2.59c-2.83-2.47-5.71-4.87-8.58-7.31
	c-0.04-0.08-0.06-0.19-0.13-0.25c-9.35-7.86-18.69-15.75-28.09-23.57c-1.98-1.65-4.03-3.21-5.94-4.95c-0.07-0.12-0.11-0.28-0.2-0.37
	c-5.28-4.44-10.56-8.87-15.83-13.31c-6.33-5.31-12.66-10.64-19-15.95c-3.39-2.85-6.81-5.68-10.21-8.52c-1.01-1.47-2.6-2.3-3.91-3.43
	c-5.71-4.89-11.48-9.7-17.25-14.54c-4.66-3.93-9.32-7.86-14-11.78c-2.79-2.34-5.59-4.65-8.37-6.97c-0.06-0.31-0.32-0.44-0.53-0.62
	c-2.66-2.21-5.3-4.42-7.94-6.64c-3.82-3.24-7.64-6.48-11.47-9.71c-3.5-2.95-6.97-5.93-10.52-8.82c-3.7-3.01-7.51-5.86-11.9-7.82
	c-0.44-0.82-1.34-0.82-2.05-1.15c-5.78-2.67-11.81-4.38-18.15-5.18c-1.33-0.17-2.73,0.13-4-0.5h-6.55c-1.28,0.63-2.68,0.33-4.02,0.5
	c-6.13,0.75-12.02,2.32-17.63,4.92c-0.89,0.4-1.95,0.51-2.57,1.4c-3.71,1.39-6.89,3.72-9.93,6.18c-5.54,4.47-10.94,9.14-16.38,13.74
	c-6.22,5.23-12.43,10.46-18.63,15.69c-3.83,3.21-7.67,6.42-11.49,9.64c-5.29,4.45-10.56,8.92-15.83,13.38
	c-4.93,4.18-9.88,8.36-14.83,12.55c-6.23,5.22-12.44,10.44-18.67,15.66c-6.37,5.36-12.75,10.71-19.11,16.08
	c-3.18,2.68-6.33,5.4-9.5,8.1c-0.52,0.96-1.58,1.27-2.36,1.92c-4.45,3.74-8.9,7.47-13.34,11.21c-5.93,4.99-11.86,10-17.77,15.02
	c-2.24,1.89-4.44,3.82-6.65,5.74c-0.19,0.12-0.4,0.23-0.58,0.38c-4.45,3.74-8.86,7.54-13.37,11.22
	c-6.54,5.35-12.74,10.97-17.25,18.28c-5.46,8.84-8.29,17.74-8.92,28.1c0.22,1.12,0.13,1.54,0.15,2.06c0.04,0.57,0.02,1.14,0.02,1.71
	c0,83.72,0,167.42-0.01,251.13c0,1.06,0.32,2.19-0.5,3.13c0.18,2.89,0.63,5.73,1.39,8.54c3.67,13.72,11.81,23.84,24.39,30.38
	c5.57,2.88,11.51,4.58,17.8,4.91c0.13-0.15,0.28-0.25,0.46-0.31c0.06-0.02,0.13-0.05,0.2-0.06c0.02-0.01,0.06-0.02,0.08-0.02
	c1.22-0.18,2.46-0.08,3.69-0.08c7.44-0.01,14.89-0.01,22.32,0c0.78,0,1.61-0.17,2.29,0.46h0.01c0.01-0.07,0.06-0.13,0.14-0.19
	c0.44-0.24,0.91-0.26,1.38-0.26c3.36,0,6.71-0.05,10.07,0.02h0.21c-0.04,0.14-0.08,0.27-0.14,0.42c-3.88,0-7.77,0-11.66,0.01v0.27
	h71.45c0.2-0.08,0.42-0.24,0.63-0.24c3.04-0.08,5.98-0.66,8.88-1.48c4.51-1.28,8.84-2.92,12.7-5.65c0.21-0.09,0.45-0.15,0.64-0.27
	c4.16-2.63,7.75-5.91,10.85-9.7c6.88-8.39,10.6-18.06,10.64-28.83c0.13-45.17,0.05-90.32,0.06-135.49c0-3.87,2.15-6.4,5.98-7.08
	h95.36c2.19,0.07,3.82,1.15,5.14,2.85c1.33,1.7,1.3,3.74,1.35,5.69c0.09,4.45,0.04,8.91,0.04,13.37c0,40.04,0,80.09-0.01,120.12
	c0,2.42,0.05,4.83,0.49,7.21c1.17,6.33,3.33,12.3,6.86,17.73c1.98,3.06,4.19,5.94,6.93,8.37c1.92,1.95,4,3.72,6.27,5.22
	c2.94,1.92,5.99,3.69,9.36,4.82c4.55,1.86,9.25,3.07,14.21,3.11c0.17-0.2,0.39-0.31,0.63-0.37c0.04-0.01,0.07-0.01,0.11-0.02h0.11
	c3.5-0.2,7-0.06,10.5-0.08c3.08-0.01,6.14-0.06,9.23,0.02h0.26c7.51-0.06,14.99-0.06,22.5,0h0.27c7.63-0.08,15.24-0.02,22.88-0.02
	c0.52,0,1.03,0.02,1.46,0.34c0.05,0.04,0.09,0.07,0.13,0.11c6.39,0.01,12.77,0.01,19.17,0.04c0.53,0,1.14-0.2,1.62,0.25h11.39
	c0.05-0.09,0.06-0.18,0.02-0.26h0.01c2.08,0,4.13-0.21,6.12-0.79c0.06-0.01,0.13-0.02,0.19-0.05h0.01
	c4.72-0.84,9.18-2.46,13.32-4.86c0.08,0.02,0.18,0.02,0.27,0.02c0.59-0.05,1.08-0.36,1.57-0.65c10.83-6.63,17.9-16.1,21.33-28.31
	c0.78-2.83,1.08-5.73,1.28-8.65V209.51C498.06,209.3,497.94,209.1,497.92,208.87z M350.08,462v3.99c-0.4-0.38-0.25-0.89-0.25-1.34
	c-0.01-45.3-0.01-90.6,0-135.88c0-0.19,0-0.38,0.01-0.57c0.44,0.59,0.23,1.28,0.23,1.92C350.08,374.09,350.08,418.04,350.08,462z
	 M457.26,462.65c0,0.62,0.01,1.23-0.01,1.85c-0.14,3.55-2.65,6.14-6.19,6.42c-1.09,0.08-2.18,0.01-3.27,0.05
	c-0.57,0.01-1.16-0.04-1.64,0.36c-0.09-0.08-0.21-0.15-0.34-0.2c-0.5-0.17-1.02-0.17-1.54-0.17c-6.83-0.01-13.66-0.01-20.5,0
	c-0.56,0-1.14-0.01-1.67,0.21c-0.11,0.07-0.19,0.15-0.25,0.24h-47.53c-5.81-0.01-11.61-0.01-17.42-0.02c-0.7,0-1.4,0-2.09-0.21
	c-0.21-0.38-0.6-0.58-0.98-0.76c-2.04-1.04-3.19-2.69-3.53-4.95c-0.07-0.51-0.05-1.03-0.05-1.55c0-45.1-0.01-90.2,0-135.3
	c0.11-2.34-0.23-4.63-0.6-6.92c-1-6.06-3.16-11.67-6.39-16.87c-0.25-0.4-0.46-0.85-1.04-0.82c-0.07-0.04-0.14-0.07-0.21-0.11v-0.01
	c0.36-0.39,0.31-0.5-0.19-1.2c-4.1-5.76-9.29-10.33-15.31-13.98c-0.58-0.34-1.17-0.84-1.97-0.64c-0.04,0.01-0.06,0.02-0.09,0.04
	c0.05-0.04,0.09-0.06,0.15-0.09c-0.24-0.79-0.97-1-1.6-1.28c-5.88-2.8-12.1-4.32-18.61-4.46c-4.63-0.09-9.26-0.02-13.9-0.01
	c-0.71,0-1.42-0.04-2.11,0.15c-0.07,0.04-0.15,0.06-0.23,0.09c-0.63-0.42-1.38-0.28-2.06-0.28c-13-0.01-26-0.01-39-0.01
	c-0.71,0-1.42-0.06-2.1,0.27c-0.06,0.13-0.09,0.24-0.11,0.33c-0.02-0.04-0.05-0.08-0.07-0.13c-0.52-0.53-1.21-0.46-1.86-0.46
	c-8.92-0.01-17.83-0.02-26.73,0c-0.55,0-1.11-0.05-1.59,0.27c-0.06-0.01-0.11-0.04-0.17-0.06c-7.01-0.47-13.92-0.08-20.66,2.15
	c-4.82,1.6-9.29,3.83-13.36,6.87c-0.33,0.25-0.78,0.45-0.81,0.93c-0.05,0.01-0.11,0.01-0.17,0.02c-2.41,1.55-4.44,3.53-6.33,5.66
	c-7.92,8.91-12.11,19.33-12.13,31.24c-0.07,44.43-0.02,88.88-0.02,133.32c0,0.71,0.01,1.42-0.02,2.14
	c-0.15,2.88-1.83,4.98-4.61,5.81c-0.96,0.3-1.93,0.42-2.94,0.42c-2.94-0.01-5.88-0.01-8.82,0c-0.7,0-1.44-0.09-2.05,0.39
	c-0.01,0.01-0.01,0.02-0.02,0.04c-10.27-0.01-20.54-0.04-30.8-0.04c-4.5,0-8.99,0.02-13.47,0.04c-12.05-0.01-24.1-0.05-36.14-0.04
	c-1.9,0-3.7-0.2-5.35-1.09c-0.14-0.23-0.28-0.45-0.45-0.66c-1.73-1.93-2.04-4.21-2.04-6.74c0.04-81.92,0.04-163.85,0.02-245.77
	c0-3.23-0.07-6.45,0.79-9.61c0.01-0.12,0.01-0.25,0.01-0.37c0.36-0.26,0.39-0.76,0.57-1.13c1.32-2.72,2.89-5.24,5.25-7.16
	c5.57-4.54,11-9.29,16.5-13.9c5.4-4.54,10.83-9.04,16.17-13.65c0.53-0.46,1.1-0.9,1.23-1.67c0.01-0.02,0.02-0.04,0.04-0.06
	c0.56,0.68,1-0.07,1.36-0.39c4.97-4.23,9.96-8.45,14.97-12.64c3.65-3.07,7.29-6.18,10.95-9.25c4.86-4.08,9.69-8.2,14.57-12.25
	c1.83-1.52,3.75-2.95,5.29-4.8c0.52,0.17,0.82-0.28,1.16-0.57c7.64-6.57,15.41-13,23.08-19.55c5.84-4.97,11.7-9.92,17.55-14.86
	c0.42-0.36,0.91-0.7,0.97-1.33v-0.08c1,0.45,1.44-0.56,1.99-1.01c2.41-1.92,4.67-4.01,7.05-5.95c4.96-4.03,9.8-8.2,14.66-12.32
	c5.41-4.59,10.91-9.07,16.25-13.75c1.73-1.52,3.72-2.75,5.04-4.71c0.01-0.02,0.04-0.06,0.05-0.08c0.55,0.46,0.9-0.25,1.23-0.51
	c3.99-3.2,7.91-6.48,11.75-9.84c6.07-5.31,15.79-6.35,22.7-2.24c2.83,1.68,5.15,4.01,7.67,6.07c2.38,1.96,4.71,3.97,7.09,5.92
	c0.3,0.24,0.64,0.71,1.04,0.34v0.05c0.12,0.68,0.69,0.98,1.14,1.39c2.68,2.34,5.46,4.55,8.15,6.87
	c6.46,5.56,13.07,10.96,19.52,16.53c4.12,3.56,8.37,6.97,12.47,10.56c0.44,0.38,0.84,0.91,1.52,0.83c0.47,0.77,1.17,1.34,1.87,1.91
	c3.33,2.73,6.58,5.54,9.87,8.33c5.22,4.45,10.53,8.79,15.72,13.27c4.22,3.65,8.56,7.16,12.76,10.84c0.79,0.71,1.52,1.62,2.67,1.77
	c0.18,0.56,0.63,0.91,1.07,1.28c3.71,3.11,7.43,6.19,11.1,9.32c4.79,4.09,9.61,8.15,14.42,12.21c3.99,3.37,7.97,6.73,11.93,10.12
	c1.98,1.7,4.01,3.33,6,5.02c0.33,0.28,0.81,0.91,1.3,0.45v0.04c-0.23,0.49,0.18,0.68,0.44,0.91c0.59,0.55,1.26,1,1.86,1.53
	c7.51,6.5,15.15,12.83,22.73,19.25c2.7,2.29,5.37,4.63,8.18,6.81c0.36,0.27,0.7,0.82,1.21,0.58c0.32,1.32,1.47,1.91,2.38,2.68
	c5.17,4.31,7.72,9.75,7.72,16.52C457.25,297.42,457.26,380.04,457.26,462.65z"/>
</svg>
