<svg width="22" height="21" viewBox="0 0 22 21" fill="none" xmlns="http://www.w3.org/2000/svg">
<path d="M22 0V14.5833C22 15.6663 21.573 16.7049 20.813 17.4707C20.053 18.2365 19.0222 18.6667 17.9474 18.6667C16.8725 18.6667 15.8417 18.2365 15.0817 17.4707C14.3217 16.7049 13.8947 15.6663 13.8947 14.5833C13.8947 13.5004 14.3217 12.4618 15.0817 11.696C15.8417 10.9302 16.8725 10.5 17.9474 10.5C18.5726 10.5 19.1632 10.64 19.6842 10.8967V4.04833L8.10526 6.53333V16.9167C8.10526 17.9996 7.67829 19.0382 6.91827 19.804C6.15826 20.5698 5.12746 21 4.05263 21C2.97781 21 1.947 20.5698 1.18699 19.804C0.426972 19.0382 0 17.9996 0 16.9167C0 15.8337 0.426972 14.7951 1.18699 14.0293C1.947 13.2635 2.97781 12.8333 4.05263 12.8333C4.67789 12.8333 5.26842 12.9733 5.78947 13.23V3.5L22 0Z" fill="#A17A11"/>
</svg>
