<svg width="14" height="16" viewBox="0 0 14 16" fill="none" xmlns="http://www.w3.org/2000/svg">
<path d="M11.6667 15.5556C11.0185 15.5556 10.4676 15.3287 10.0139 14.875C9.56019 14.4213 9.33333 13.8704 9.33333 13.2222C9.33333 13.1315 9.33982 13.0374 9.35278 12.9399C9.36574 12.8424 9.38519 12.755 9.41111 12.6778L3.92778 9.48889C3.70741 9.68333 3.46111 9.83578 3.18889 9.94622C2.91667 10.0567 2.63148 10.1116 2.33333 10.1111C1.68519 10.1111 1.13426 9.88426 0.680556 9.43056C0.226852 8.97685 0 8.42593 0 7.77778C0 7.12963 0.226852 6.5787 0.680556 6.125C1.13426 5.6713 1.68519 5.44444 2.33333 5.44444C2.63148 5.44444 2.91667 5.49967 3.18889 5.61011C3.46111 5.72056 3.70741 5.87274 3.92778 6.06667L9.41111 2.87778C9.38519 2.8 9.36574 2.71263 9.35278 2.61567C9.33982 2.5187 9.33333 2.42459 9.33333 2.33333C9.33333 1.68519 9.56019 1.13426 10.0139 0.680556C10.4676 0.226852 11.0185 0 11.6667 0C12.3148 0 12.8657 0.226852 13.3194 0.680556C13.7731 1.13426 14 1.68519 14 2.33333C14 2.98148 13.7731 3.53241 13.3194 3.98611C12.8657 4.43982 12.3148 4.66667 11.6667 4.66667C11.3685 4.66667 11.0833 4.6117 10.8111 4.50178C10.5389 4.39185 10.2926 4.23941 10.0722 4.04444L4.58889 7.23333C4.61481 7.31111 4.63426 7.39874 4.64722 7.49622C4.66019 7.5937 4.66667 7.68756 4.66667 7.77778C4.66667 7.86852 4.66019 7.96263 4.64722 8.06011C4.63426 8.15759 4.61481 8.24496 4.58889 8.32222L10.0722 11.5111C10.2926 11.3167 10.5389 11.1645 10.8111 11.0546C11.0833 10.9446 11.3685 10.8894 11.6667 10.8889C12.3148 10.8889 12.8657 11.1157 13.3194 11.5694C13.7731 12.0231 14 12.5741 14 13.2222C14 13.8704 13.7731 14.4213 13.3194 14.875C12.8657 15.3287 12.3148 15.5556 11.6667 15.5556Z" fill="white"/>
</svg>
