<svg width="20" height="20" viewBox="0 0 20 20" fill="none" xmlns="http://www.w3.org/2000/svg">
<path d="M16 15C16 15.5304 15.7893 16.0391 15.4142 16.4142C15.0391 16.7893 14.5304 17 14 17C13.4696 17 12.9609 16.7893 12.5858 16.4142C12.2107 16.0391 12 15.5304 12 15C12 14.4696 12.2107 13.9609 12.5858 13.5858C12.9609 13.2107 13.4696 13 14 13C14.5304 13 15.0391 13.2107 15.4142 13.5858C15.7893 13.9609 16 14.4696 16 15Z" fill="url(#paint0_linear_662_1429)"/>
<path d="M9 15.8571C12 12.0476 16 12.0476 19 15.8571C16 19.6667 12 19.6667 9 15.8571Z" stroke="url(#paint1_linear_662_1429)" stroke-width="1.5" stroke-linejoin="round"/>
<mask id="path-3-inside-1_662_1429" fill="white">
<path fill-rule="evenodd" clip-rule="evenodd" d="M0 8C0 3.6 3.6 0 8 0C12.4 0 16 3.6 16 8C16 8.99855 15.7606 10.021 15.3686 11.0263L13.3765 10.5837C13.7639 9.69061 14 8.812 14 8C14 4.7 11.3 2 8 2C4.7 2 2 4.7 2 8C2 11.4 5.9 15.7 8 17.7V20C7.8 20 7.5 19.9 7.3 19.8C7.28149 19.7815 7.23747 19.7409 7.17116 19.6797C6.16282 18.7499 0 13.0668 0 8ZM4 8C4 5.8 5.8 4 8 4C10.2 4 12 5.8 12 8C12 10.2 10.2 12 8 12C5.8 12 4 10.2 4 8ZM6 8C6 9.1 6.9 10 8 10C9.1 10 10 9.1 10 8C10 6.9 9.1 6 8 6C6.9 6 6 6.9 6 8Z"/>
</mask>
<path fill-rule="evenodd" clip-rule="evenodd" d="M0 8C0 3.6 3.6 0 8 0C12.4 0 16 3.6 16 8C16 8.99855 15.7606 10.021 15.3686 11.0263L13.3765 10.5837C13.7639 9.69061 14 8.812 14 8C14 4.7 11.3 2 8 2C4.7 2 2 4.7 2 8C2 11.4 5.9 15.7 8 17.7V20C7.8 20 7.5 19.9 7.3 19.8C7.28149 19.7815 7.23747 19.7409 7.17116 19.6797C6.16282 18.7499 0 13.0668 0 8ZM4 8C4 5.8 5.8 4 8 4C10.2 4 12 5.8 12 8C12 10.2 10.2 12 8 12C5.8 12 4 10.2 4 8ZM6 8C6 9.1 6.9 10 8 10C9.1 10 10 9.1 10 8C10 6.9 9.1 6 8 6C6.9 6 6 6.9 6 8Z" fill="url(#paint2_linear_662_1429)"/>
<path d="M15.3686 11.0263L15.1516 12.0025L15.9886 12.1885L16.3002 11.3897L15.3686 11.0263ZM13.3765 10.5837L12.4591 10.1858L11.9771 11.2971L13.1596 11.5599L13.3765 10.5837ZM8 17.7H9V17.2714L8.68966 16.9759L8 17.7ZM8 20V21H9V20H8ZM7.3 19.8L6.59289 20.5071L6.70764 20.6219L6.85278 20.6944L7.3 19.8ZM7.17116 19.6797L7.84908 18.9446L7.84908 18.9446L7.17116 19.6797ZM8 -1C3.04772 -1 -1 3.04772 -1 8H1C1 4.15228 4.15228 1 8 1V-1ZM17 8C17 3.04772 12.9523 -1 8 -1V1C11.8477 1 15 4.15228 15 8H17ZM16.3002 11.3897C16.7238 10.3036 17 9.15559 17 8H15C15 8.8415 14.7975 9.73848 14.4369 10.663L16.3002 11.3897ZM15.5855 10.0502L13.5935 9.60749L13.1596 11.5599L15.1516 12.0025L15.5855 10.0502ZM13 8C13 8.6273 12.8149 9.36539 12.4591 10.1858L14.294 10.9816C14.7128 10.0158 15 8.99671 15 8H13ZM8 3C10.7477 3 13 5.25228 13 8H15C15 4.14772 11.8523 1 8 1V3ZM3 8C3 5.25228 5.25228 3 8 3V1C4.14772 1 1 4.14772 1 8H3ZM8.68966 16.9759C7.66744 16.0023 6.21639 14.4768 5.02898 12.7976C3.81336 11.0786 3 9.3718 3 8H1C1 10.0282 2.13664 12.1714 3.39602 13.9524C4.68361 15.7732 6.23256 17.3977 7.31034 18.4241L8.68966 16.9759ZM7 17.7V20H9V17.7H7ZM6.85278 20.6944C7.10939 20.8227 7.57342 21 8 21V19C8.02825 19 8.03524 19.003 8.01554 18.9994C7.99849 18.9962 7.97189 18.99 7.93735 18.9797C7.8653 18.9581 7.79396 18.9289 7.74722 18.9056L6.85278 20.6944ZM6.49324 20.4149C6.52704 20.446 6.55271 20.4697 6.5723 20.488C6.58198 20.497 6.58875 20.5033 6.5933 20.5076C6.59875 20.5128 6.59754 20.5118 6.59289 20.5071L8.00711 19.0929C7.96998 19.0558 7.90385 18.9951 7.84908 18.9446L6.49324 20.4149ZM-1 8C-1 10.8858 0.72604 13.8019 2.41434 16.0003C4.13555 18.2416 5.98074 19.9423 6.49325 20.4149L7.84908 18.9446C7.35324 18.4874 5.61284 16.8816 4.00056 14.7822C2.35537 12.6399 1 10.181 1 8H-1ZM8 3C5.24772 3 3 5.24772 3 8H5C5 6.35228 6.35228 5 8 5V3ZM13 8C13 5.24772 10.7523 3 8 3V5C9.64772 5 11 6.35228 11 8H13ZM8 13C10.7523 13 13 10.7523 13 8H11C11 9.64772 9.64772 11 8 11V13ZM3 8C3 10.7523 5.24772 13 8 13V11C6.35228 11 5 9.64772 5 8H3ZM8 9C7.45228 9 7 8.54772 7 8H5C5 9.65229 6.34772 11 8 11V9ZM9 8C9 8.54772 8.54772 9 8 9V11C9.65229 11 11 9.65229 11 8H9ZM8 7C8.54772 7 9 7.45228 9 8H11C11 6.34772 9.65229 5 8 5V7ZM7 8C7 7.45228 7.45228 7 8 7V5C6.34772 5 5 6.34772 5 8H7Z" fill="url(#paint3_linear_662_1429)" mask="url(#path-3-inside-1_662_1429)"/>
<defs>
<linearGradient id="paint0_linear_662_1429" x1="14.1" y1="17" x2="14.1" y2="13" gradientUnits="userSpaceOnUse">
<stop stop-color="#61431F"/>
<stop offset="1" stop-color="#C5AF6C"/>
</linearGradient>
<linearGradient id="paint1_linear_662_1429" x1="14.25" y1="18.7143" x2="14.25" y2="13" gradientUnits="userSpaceOnUse">
<stop stop-color="#61431F"/>
<stop offset="1" stop-color="#A28C4A"/>
</linearGradient>
<linearGradient id="paint2_linear_662_1429" x1="8.4" y1="20" x2="8.4" y2="1.45389e-09" gradientUnits="userSpaceOnUse">
<stop stop-color="#61431F"/>
<stop offset="1" stop-color="#F3D782"/>
</linearGradient>
<linearGradient id="paint3_linear_662_1429" x1="8.4" y1="20" x2="8.4" y2="1.45389e-09" gradientUnits="userSpaceOnUse">
<stop stop-color="#61431F"/>
<stop offset="1" stop-color="#F3D782"/>
</linearGradient>
</defs>
</svg>
